<svg width="512" height="512" xmlns="http://www.w3.org/2000/svg">

 <g>
  <title>background</title>
  <rect height="402" width="582" y="-1" x="-1" fill="none" id="canvas_background"/>
 </g>
 <g>
  <title>Layer 1</title>
  <path d="m456.821991,179.106995c22.218994,79.43399 -26.877014,198.972992 -151.003998,223.471008l-16.886993,-36.498016c38.02298,-14.329987 63.218994,-47.063995 66.942993,-81.464996c-42.756012,-6.730011 -75.458984,-43.738998 -75.458984,-88.384995c0.000977,-99.243996 146.402985,-124.392998 176.406982,-17.123001zm-230.416992,0c22.220001,79.43399 -26.875992,198.972992 -151.003998,223.471008l-16.886002,-36.498016c38.022003,-14.329987 63.218002,-47.063995 66.943001,-81.464996c-42.755997,-6.72998 -75.458,-43.738983 -75.458,-88.384995c0,-99.243996 146.401993,-124.392998 176.404999,-17.123001z" fill="#ffffff" id="quote-6-icon"/>
 </g>
</svg>