<svg width="512" height="512" xmlns="http://www.w3.org/2000/svg">

 <g>
  <title>background</title>
  <rect height="402" width="582" y="-1" x="-1" fill="none" id="canvas_background"/>
 </g>
 <g>
  <title>Layer 1</title>
  <path d="m55.178398,332.894989c-22.219997,-79.434982 26.875999,-198.973984 151.003609,-223.471992l16.885986,36.498009c-38.021988,14.330994 -63.217987,47.063995 -66.942993,81.465988c42.757004,6.730011 75.459,43.737 75.459,88.38501c-0.001007,99.242004 -146.402603,124.389984 -176.405602,17.122986zm230.416603,0c-22.220001,-79.434982 26.876007,-198.973984 151.003998,-223.471992l16.885986,36.498009c-38.021973,14.330994 -63.217987,47.063995 -66.942993,81.465988c42.757019,6.730011 75.459015,43.737 75.459015,88.38501c-0.001007,99.242004 -146.403015,124.389984 -176.406006,17.122986z" fill="#ffffff" id="quote-5-icon"/>
  <path d="m36.5,107.270004c0,4 0,4 0,6c0,3 0,6 0,9c0,3 0,7 0,10c0,3 0,6 0,9c0,3 0,4 0,6c0,2 0,3 0,4c0,1 -0.707108,1.292892 0,2c0.707108,0.707108 1,1 1,1l0,0" stroke-width="null" stroke-opacity="null" stroke="null" fill-opacity="null" fill="none" id="svg_1"/>
 </g>
</svg>